<?xml version="1.0" encoding="UTF-8" standalone="no"?>
<!DOCTYPE svg PUBLIC "-//W3C//DTD SVG 1.0//EN" "http://www.w3.org/TR/2001/PR-SVG-20010719/DTD/svg10.dtd">
<svg width="41cm" height="35cm" viewBox="29 -140 805 694" xmlns="http://www.w3.org/2000/svg" xmlns:xlink="http://www.w3.org/1999/xlink">
  <g>
    <rect style="fill: #3781dd" x="30.9782" y="-0.771282" width="668.325" height="417.678" rx="8" ry="8"/>
    <rect style="fill: none; fill-opacity:0; stroke-width: 2; stroke-linejoin: round; stroke: #201fc1" x="30.9782" y="-0.771282" width="668.325" height="417.678" rx="8" ry="8"/>
  </g>
  <text font-size="14.6756" style="fill: #000000;text-anchor:middle;font-family:monospace;font-style:normal;font-weight:700" x="365.14" y="213.168">
    <tspan x="365.14" y="213.168">System </tspan>
  </text>
  <line style="fill: none; fill-opacity:0; stroke-width: 1; stroke-linejoin: round; stroke: #000000" x1="765.382" y1="133.35" x2="502.756" y2="65.9854"/>
  <line style="fill: none; fill-opacity:0; stroke-width: 1; stroke-linejoin: round; stroke: #000000" x1="502.756" y1="65.9854" x2="505.96" y2="444.964"/>
  <g>
    <ellipse style="fill: #ffffff" cx="91.5482" cy="367.721" rx="47.3" ry="31.5333"/>
    <ellipse style="fill: none; fill-opacity:0; stroke-width: 1; stroke-linejoin: round; stroke: #000000" cx="91.5482" cy="367.721" rx="47.3" ry="31.5333"/>
    <text font-size="12.8" style="fill: #000000;text-anchor:middle;font-family:serif;font-style:normal;font-weight:normal" x="91.5482" y="363.621">
      <tspan x="91.5482" y="363.621">Submit</tspan>
      <tspan x="91.5482" y="379.621">Model</tspan>
    </text>
  </g>
  <g>
    <ellipse style="fill: #ffffff" cx="226.162" cy="367.722" rx="48.05" ry="32"/>
    <ellipse style="fill: none; fill-opacity:0; stroke-width: 1; stroke-linejoin: round; stroke: #000000" cx="226.162" cy="367.722" rx="48.05" ry="32"/>
    <text font-size="12.8" style="fill: #000000;text-anchor:middle;font-family:serif;font-style:normal;font-weight:normal" x="226.162" y="363.622">
      <tspan x="226.162" y="363.622">Publish</tspan>
      <tspan x="226.162" y="379.622">Model</tspan>
    </text>
  </g>
  <g>
    <ellipse style="fill: #ffffff" cx="555.172" cy="367.723" rx="47.8" ry="31.8667"/>
    <ellipse style="fill: none; fill-opacity:0; stroke-width: 1; stroke-linejoin: round; stroke: #000000" cx="555.172" cy="367.723" rx="47.8" ry="31.8667"/>
    <text font-size="12.8" style="fill: #000000;text-anchor:middle;font-family:serif;font-style:normal;font-weight:normal" x="555.172" y="363.623">
      <tspan x="555.172" y="363.623">Update</tspan>
      <tspan x="555.172" y="379.623">Model</tspan>
    </text>
  </g>
  <g>
    <ellipse style="fill: #ffffff" cx="650.052" cy="367.723" rx="44.35" ry="29.5667"/>
    <ellipse style="fill: none; fill-opacity:0; stroke-width: 1; stroke-linejoin: round; stroke: #000000" cx="650.052" cy="367.723" rx="44.35" ry="29.5667"/>
    <text font-size="12.8" style="fill: #000000;text-anchor:middle;font-family:serif;font-style:normal;font-weight:normal" x="650.052" y="363.623">
      <tspan x="650.052" y="363.623">Copy</tspan>
      <tspan x="650.052" y="379.623">Model</tspan>
    </text>
  </g>
  <g>
    <ellipse style="fill: #ffffff" cx="344.026" cy="367.722" rx="52.55" ry="32"/>
    <ellipse style="fill: none; fill-opacity:0; stroke-width: 1; stroke-linejoin: round; stroke: #000000" cx="344.026" cy="367.722" rx="52.55" ry="32"/>
    <text font-size="12.8" style="fill: #000000;text-anchor:middle;font-family:serif;font-style:normal;font-weight:normal" x="344.026" y="363.622">
      <tspan x="344.026" y="363.622">Validate</tspan>
      <tspan x="344.026" y="379.622">Model</tspan>
    </text>
  </g>
  <g>
    <ellipse style="fill: #ffffff" cx="399.359" cy="45.9853" rx="47.625" ry="31.75"/>
    <ellipse style="fill: none; fill-opacity:0; stroke-width: 1; stroke-linejoin: round; stroke: #000000" cx="399.359" cy="45.9853" rx="47.625" ry="31.75"/>
    <text font-size="12.8" style="fill: #000000;text-anchor:middle;font-family:serif;font-style:normal;font-weight:normal" x="399.359" y="41.8853">
      <tspan x="399.359" y="41.8853">View</tspan>
      <tspan x="399.359" y="57.8853">Models</tspan>
    </text>
  </g>
  <g>
    <ellipse style="fill: #ffffff" cx="277.018" cy="45.9853" rx="55.05" ry="32"/>
    <ellipse style="fill: none; fill-opacity:0; stroke-width: 1; stroke-linejoin: round; stroke: #000000" cx="277.018" cy="45.9853" rx="55.05" ry="32"/>
    <text font-size="12.8" style="fill: #000000;text-anchor:middle;font-family:serif;font-style:normal;font-weight:normal" x="277.018" y="41.8853">
      <tspan x="277.018" y="41.8853">Retrieve</tspan>
      <tspan x="277.018" y="57.8853">Models</tspan>
    </text>
  </g>
  <g>
    <ellipse style="fill: #ffffff" cx="127.726" cy="45.9853" rx="82.8" ry="32"/>
    <ellipse style="fill: none; fill-opacity:0; stroke-width: 1; stroke-linejoin: round; stroke: #000000" cx="127.726" cy="45.9853" rx="82.8" ry="32"/>
    <text font-size="12.8" style="fill: #000000;text-anchor:middle;font-family:serif;font-style:normal;font-weight:normal" x="127.726" y="41.8853">
      <tspan x="127.726" y="41.8853">Comment on</tspan>
      <tspan x="127.726" y="57.8853">Model</tspan>
    </text>
  </g>
  <g>
    <ellipse style="fill: #ffffff" cx="634.863" cy="45.9853" rx="47.625" ry="31.75"/>
    <ellipse style="fill: none; fill-opacity:0; stroke-width: 1; stroke-linejoin: round; stroke: #000000" cx="634.863" cy="45.9853" rx="47.625" ry="31.75"/>
    <text font-size="12.8" style="fill: #000000;text-anchor:middle;font-family:serif;font-style:normal;font-weight:normal" x="634.863" y="41.8853">
      <tspan x="634.863" y="41.8853">Review</tspan>
      <tspan x="634.863" y="57.8853">Models</tspan>
    </text>
  </g>
  <g>
    <ellipse style="fill: #ffffff" cx="610.984" cy="133.789" rx="85.6" ry="32"/>
    <ellipse style="fill: none; fill-opacity:0; stroke-width: 1; stroke-linejoin: round; stroke: #000000" cx="610.984" cy="133.789" rx="85.6" ry="32"/>
    <text font-size="12.8" style="fill: #000000;text-anchor:middle;font-family:serif;font-style:normal;font-weight:normal" x="610.984" y="129.689">
      <tspan x="610.984" y="129.689">Repository</tspan>
      <tspan x="610.984" y="145.689">Management</tspan>
    </text>
  </g>
  <g>
    <ellipse style="fill: #ffffff" cx="153.121" cy="462.87" rx="6" ry="6"/>
    <ellipse style="fill: none; fill-opacity:0; stroke-width: 1; stroke-linejoin: round; stroke: #000000" cx="153.121" cy="462.87" rx="6" ry="6"/>
    <line style="fill: none; fill-opacity:0; stroke-width: 1; stroke-linejoin: round; stroke: #000000" x1="129.121" y1="474.87" x2="177.121" y2="474.87"/>
    <line style="fill: none; fill-opacity:0; stroke-width: 1; stroke-linejoin: round; stroke: #000000" x1="153.121" y1="468.87" x2="153.121" y2="498.87"/>
    <line style="fill: none; fill-opacity:0; stroke-width: 1; stroke-linejoin: round; stroke: #000000" x1="153.121" y1="498.87" x2="129.121" y2="524.87"/>
    <line style="fill: none; fill-opacity:0; stroke-width: 1; stroke-linejoin: round; stroke: #000000" x1="153.121" y1="498.87" x2="177.121" y2="524.87"/>
    <text font-size="12.8" style="fill: #000000;text-anchor:middle;font-family:sans-serif;font-style:normal;font-weight:normal" x="153.121" y="548.77">
      <tspan x="153.121" y="548.77">Owner</tspan>
    </text>
  </g>
  <g>
    <ellipse style="fill: #ffffff" cx="505.96" cy="462.964" rx="6" ry="6"/>
    <ellipse style="fill: none; fill-opacity:0; stroke-width: 1; stroke-linejoin: round; stroke: #000000" cx="505.96" cy="462.964" rx="6" ry="6"/>
    <line style="fill: none; fill-opacity:0; stroke-width: 1; stroke-linejoin: round; stroke: #000000" x1="481.96" y1="474.964" x2="529.96" y2="474.964"/>
    <line style="fill: none; fill-opacity:0; stroke-width: 1; stroke-linejoin: round; stroke: #000000" x1="505.96" y1="468.964" x2="505.96" y2="498.964"/>
    <line style="fill: none; fill-opacity:0; stroke-width: 1; stroke-linejoin: round; stroke: #000000" x1="505.96" y1="498.964" x2="481.96" y2="524.964"/>
    <line style="fill: none; fill-opacity:0; stroke-width: 1; stroke-linejoin: round; stroke: #000000" x1="505.96" y1="498.964" x2="529.96" y2="524.964"/>
    <text font-size="12.8" style="fill: #000000;text-anchor:middle;font-family:sans-serif;font-style:normal;font-weight:normal" x="505.96" y="548.864">
      <tspan x="505.96" y="548.864">Editor</tspan>
    </text>
  </g>
  <g>
    <polyline style="fill: none; fill-opacity:0; stroke-width: 2; stroke: #000000" points="462.724,498.964 321.54,498.964 321.54,498.87 178.121,498.87 "/>
    <polygon style="fill: #ffffff" points="462.724,506.964 478.724,498.964 462.724,490.964 "/>
    <polygon style="fill: none; fill-opacity:0; stroke-width: 2; stroke: #000000" points="462.724,506.964 478.724,498.964 462.724,490.964 "/>
    <text font-size="12.7998" style="fill: #000000;text-anchor:start;font-family:monospace;font-style:normal;font-weight:normal" x="323.541" y="495.917">&lt;&lt;includes&gt;&gt;</text>
  </g>
  <line style="fill: none; fill-opacity:0; stroke-width: 1; stroke: #000000" x1="505.96" y1="444.964" x2="650.052" y2="397.288"/>
  <line style="fill: none; fill-opacity:0; stroke-width: 1; stroke: #000000" x1="505.96" y1="444.964" x2="555.172" y2="399.588"/>
  <line style="fill: none; fill-opacity:0; stroke-width: 1; stroke: #000000" x1="344.026" y1="399.722" x2="505.96" y2="444.964"/>
  <line style="fill: none; fill-opacity:0; stroke-width: 1; stroke: #000000" x1="153.121" y1="444.87" x2="91.5482" y2="399.256"/>
  <line style="fill: none; fill-opacity:0; stroke-width: 1; stroke: #000000" x1="226.162" y1="399.722" x2="153.121" y2="444.87"/>
  <g>
    <ellipse style="fill: #ffffff" cx="502.756" cy="45.9854" rx="36.75" ry="20"/>
    <ellipse style="fill: none; fill-opacity:0; stroke-width: 1; stroke: #000000" cx="502.756" cy="45.9854" rx="36.75" ry="20"/>
    <text font-size="12.8" style="fill: #000000;text-anchor:middle;font-family:serif;font-style:normal;font-weight:normal" x="502.756" y="49.8854">
      <tspan x="502.756" y="49.8854">Login</tspan>
    </text>
  </g>
  <g>
    <ellipse style="fill: #ffffff" cx="397.716" cy="-121.148" rx="6.06287" ry="6.06287"/>
    <ellipse style="fill: none; fill-opacity:0; stroke-width: 1; stroke: #000000" cx="397.716" cy="-121.148" rx="6.06287" ry="6.06287"/>
    <line style="fill: none; fill-opacity:0; stroke-width: 1; stroke: #000000" x1="373.465" y1="-109.022" x2="421.967" y2="-109.022"/>
    <line style="fill: none; fill-opacity:0; stroke-width: 1; stroke: #000000" x1="397.716" y1="-115.085" x2="397.716" y2="-84.7704"/>
    <line style="fill: none; fill-opacity:0; stroke-width: 1; stroke: #000000" x1="397.716" y1="-84.7704" x2="373.465" y2="-58.4351"/>
    <line style="fill: none; fill-opacity:0; stroke-width: 1; stroke: #000000" x1="397.716" y1="-84.7704" x2="421.967" y2="-58.4351"/>
    <text font-size="12.8" style="fill: #000000;text-anchor:middle;font-family:sans-serif;font-style:normal;font-weight:normal" x="397.716" y="-34.4094">
      <tspan x="397.716" y="-34.4094">Visitor</tspan>
    </text>
  </g>
  <line style="fill: none; fill-opacity:0; stroke-width: 1; stroke: #000000" x1="399.36" y1="14.2353" x2="397.716" y2="-30.3094"/>
  <line style="fill: none; fill-opacity:0; stroke-width: 1; stroke: #000000" x1="277.018" y1="13.9853" x2="397.716" y2="-30.3094"/>
  <line style="fill: none; fill-opacity:0; stroke-width: 1; stroke: #000000" x1="502.756" y1="25.9854" x2="397.716" y2="-30.3094"/>
  <g>
    <ellipse style="fill: #ffffff" cx="127.812" cy="-120.652" rx="6" ry="6"/>
    <ellipse style="fill: none; fill-opacity:0; stroke-width: 1; stroke: #000000" cx="127.812" cy="-120.652" rx="6" ry="6"/>
    <line style="fill: none; fill-opacity:0; stroke-width: 1; stroke: #000000" x1="103.812" y1="-108.652" x2="151.812" y2="-108.652"/>
    <line style="fill: none; fill-opacity:0; stroke-width: 1; stroke: #000000" x1="127.812" y1="-114.652" x2="127.812" y2="-84.6517"/>
    <line style="fill: none; fill-opacity:0; stroke-width: 1; stroke: #000000" x1="127.812" y1="-84.6517" x2="103.812" y2="-58.6517"/>
    <line style="fill: none; fill-opacity:0; stroke-width: 1; stroke: #000000" x1="127.812" y1="-84.6517" x2="151.812" y2="-58.6517"/>
    <text font-size="12.8" style="fill: #000000;text-anchor:middle;font-family:sans-serif;font-style:normal;font-weight:normal" x="127.812" y="-34.7517">
      <tspan x="127.812" y="-34.7517">Collaborator</tspan>
    </text>
  </g>
  <g>
    <ellipse style="fill: #ffffff" cx="636.23" cy="-120.708" rx="6" ry="6"/>
    <ellipse style="fill: none; fill-opacity:0; stroke-width: 1; stroke: #000000" cx="636.23" cy="-120.708" rx="6" ry="6"/>
    <line style="fill: none; fill-opacity:0; stroke-width: 1; stroke: #000000" x1="612.23" y1="-108.708" x2="660.23" y2="-108.708"/>
    <line style="fill: none; fill-opacity:0; stroke-width: 1; stroke: #000000" x1="636.23" y1="-114.708" x2="636.23" y2="-84.7084"/>
    <line style="fill: none; fill-opacity:0; stroke-width: 1; stroke: #000000" x1="636.23" y1="-84.7084" x2="612.23" y2="-58.7084"/>
    <line style="fill: none; fill-opacity:0; stroke-width: 1; stroke: #000000" x1="636.23" y1="-84.7084" x2="660.23" y2="-58.7084"/>
    <text font-size="12.8" style="fill: #000000;text-anchor:middle;font-family:sans-serif;font-style:normal;font-weight:normal" x="636.23" y="-34.8084">
      <tspan x="636.23" y="-34.8084">Reviewer</tspan>
    </text>
  </g>
  <g>
    <ellipse style="fill: #ffffff" cx="609.78" cy="206.134" rx="85.6" ry="32"/>
    <ellipse style="fill: none; fill-opacity:0; stroke-width: 1; stroke: #000000" cx="609.78" cy="206.134" rx="85.6" ry="32"/>
    <text font-size="12.8" style="fill: #000000;text-anchor:middle;font-family:serif;font-style:normal;font-weight:normal" x="609.78" y="202.034">
      <tspan x="609.78" y="202.034">User</tspan>
      <tspan x="609.78" y="218.034">Management</tspan>
    </text>
  </g>
  <g>
    <ellipse style="fill: #ffffff" cx="607.18" cy="281.192" rx="88.2" ry="32"/>
    <ellipse style="fill: none; fill-opacity:0; stroke-width: 1; stroke: #000000" cx="607.18" cy="281.192" rx="88.2" ry="32"/>
    <text font-size="12.8" style="fill: #000000;text-anchor:middle;font-family:serif;font-style:normal;font-weight:normal" x="607.18" y="277.092">
      <tspan x="607.18" y="277.092">Authorisation</tspan>
      <tspan x="607.18" y="293.092">Management</tspan>
    </text>
  </g>
  <line style="fill: none; fill-opacity:0; stroke-width: 1; stroke: #000000" x1="127.726" y1="13.9853" x2="127.812" y2="-30.6517"/>
  <g>
    <ellipse style="fill: #ffffff" cx="790.382" cy="97.3502" rx="6" ry="6"/>
    <ellipse style="fill: none; fill-opacity:0; stroke-width: 1; stroke: #000000" cx="790.382" cy="97.3502" rx="6" ry="6"/>
    <line style="fill: none; fill-opacity:0; stroke-width: 1; stroke: #000000" x1="766.382" y1="109.35" x2="814.382" y2="109.35"/>
    <line style="fill: none; fill-opacity:0; stroke-width: 1; stroke: #000000" x1="790.382" y1="103.35" x2="790.382" y2="133.35"/>
    <line style="fill: none; fill-opacity:0; stroke-width: 1; stroke: #000000" x1="790.382" y1="133.35" x2="766.382" y2="159.35"/>
    <line style="fill: none; fill-opacity:0; stroke-width: 1; stroke: #000000" x1="790.382" y1="133.35" x2="814.382" y2="159.35"/>
    <text font-size="12.8" style="fill: #000000;text-anchor:middle;font-family:sans-serif;font-style:normal;font-weight:normal" x="790.382" y="183.25">
      <tspan x="790.382" y="183.25">Administrator</tspan>
    </text>
  </g>
  <line style="fill: none; fill-opacity:0; stroke-width: 1; stroke: #000000" x1="634.862" y1="14.2353" x2="636.23" y2="-30.7084"/>
  <line style="fill: none; fill-opacity:0; stroke-width: 1; stroke: #000000" x1="696.584" y1="133.789" x2="765.382" y2="133.35"/>
  <line style="fill: none; fill-opacity:0; stroke-width: 1; stroke: #000000" x1="695.38" y1="206.134" x2="765.382" y2="133.35"/>
  <line style="fill: none; fill-opacity:0; stroke-width: 1; stroke: #000000" x1="695.38" y1="281.192" x2="765.382" y2="133.35"/>
  <g>
    <polyline style="fill: none; fill-opacity:0; stroke-width: 2; stroke: #000000" points="354.48,-84.7914 254.764,-84.7914 254.764,-84.6517 152.812,-84.6517 "/>
    <polygon style="fill: #ffffff" points="354.48,-76.7914 370.48,-84.7914 354.48,-92.7914 "/>
    <polygon style="fill: none; fill-opacity:0; stroke-width: 2; stroke: #000000" points="354.48,-76.7914 370.48,-84.7914 354.48,-92.7914 "/>
    <text font-size="12.7998" style="fill: #000000;text-anchor:start;font-family:monospace;font-style:normal;font-weight:normal" x="256.764" y="-87.7216">&lt;&lt;includes&gt;&gt;</text>
  </g>
  <g>
    <polyline style="fill: none; fill-opacity:0; stroke-width: 2; stroke: #000000" points="440.952,-84.7914 524.973,-84.7914 524.973,-84.7084 611.23,-84.7084 "/>
    <polygon style="fill: #ffffff" points="440.952,-92.7914 424.952,-84.7914 440.952,-76.7914 "/>
    <polygon style="fill: none; fill-opacity:0; stroke-width: 2; stroke: #000000" points="440.952,-92.7914 424.952,-84.7914 440.952,-76.7914 "/>
    <text font-size="12.7998" style="fill: #000000;text-anchor:start;font-family:monospace;font-style:normal;font-weight:normal" x="526.973" y="-87.7499">&lt;&lt;includes&gt;&gt;</text>
  </g>
  <line style="fill: none; fill-opacity:0; stroke-width: 1; stroke: #000000" x1="505.96" y1="444.964" x2="186.275" y2="68.6128"/>
</svg>
